<?xml version="1.0" encoding="UTF-8" standalone="no"?>
<!-- Generator: Adobe Illustrator 17.1.0, SVG Export Plug-In . SVG Version: 6.00 Build 0)  -->

<svg
   version="1.1"
   id="Capa_1"
   x="0px"
   y="0px"
   viewBox="0 0 345.834 345.834"
   style="enable-background:new 0 0 345.834 345.834;"
   xml:space="preserve"
   sodipodi:docname="enviar-correo.svg"
   inkscape:version="1.1.1 (3bf5ae0d25, 2021-09-20)"
   xmlns:inkscape="http://www.inkscape.org/namespaces/inkscape"
   xmlns:sodipodi="http://sodipodi.sourceforge.net/DTD/sodipodi-0.dtd"
   xmlns="http://www.w3.org/2000/svg"
   xmlns:svg="http://www.w3.org/2000/svg"><defs
   id="defs12628" /><sodipodi:namedview
   id="namedview12626"
   pagecolor="#505050"
   bordercolor="#eeeeee"
   borderopacity="1"
   inkscape:pageshadow="0"
   inkscape:pageopacity="0"
   inkscape:pagecheckerboard="0"
   showgrid="false"
   inkscape:zoom="0.5869868"
   inkscape:cx="-45.14582"
   inkscape:cy="493.19678"
   inkscape:window-width="1920"
   inkscape:window-height="1001"
   inkscape:window-x="-9"
   inkscape:window-y="-9"
   inkscape:window-maximized="1"
   inkscape:current-layer="Capa_1" />
<g
   id="g12593">
	<path
   d="M339.798,260.429c0.13-0.026,0.257-0.061,0.385-0.094c0.109-0.028,0.219-0.051,0.326-0.084   c0.125-0.038,0.247-0.085,0.369-0.129c0.108-0.039,0.217-0.074,0.324-0.119c0.115-0.048,0.226-0.104,0.338-0.157   c0.109-0.052,0.22-0.1,0.327-0.158c0.107-0.057,0.208-0.122,0.312-0.184c0.107-0.064,0.215-0.124,0.319-0.194   c0.111-0.074,0.214-0.156,0.321-0.236c0.09-0.067,0.182-0.13,0.27-0.202c0.162-0.133,0.316-0.275,0.466-0.421   c0.027-0.026,0.056-0.048,0.083-0.075c0.028-0.028,0.052-0.059,0.079-0.088c0.144-0.148,0.284-0.3,0.416-0.46   c0.077-0.094,0.144-0.192,0.216-0.289c0.074-0.1,0.152-0.197,0.221-0.301c0.074-0.111,0.139-0.226,0.207-0.34   c0.057-0.096,0.118-0.19,0.171-0.289c0.062-0.115,0.114-0.234,0.169-0.351c0.049-0.104,0.101-0.207,0.146-0.314   c0.048-0.115,0.086-0.232,0.128-0.349c0.041-0.114,0.085-0.227,0.12-0.343c0.036-0.118,0.062-0.238,0.092-0.358   c0.029-0.118,0.063-0.234,0.086-0.353c0.028-0.141,0.045-0.283,0.065-0.425c0.014-0.1,0.033-0.199,0.043-0.3   c0.025-0.249,0.038-0.498,0.038-0.748V92.76c0-4.143-3.357-7.5-7.5-7.5h-236.25c-0.066,0-0.13,0.008-0.196,0.01   c-0.143,0.004-0.285,0.01-0.427,0.022c-0.113,0.009-0.225,0.022-0.337,0.037c-0.128,0.016-0.255,0.035-0.382,0.058   c-0.119,0.021-0.237,0.046-0.354,0.073c-0.119,0.028-0.238,0.058-0.356,0.092c-0.117,0.033-0.232,0.069-0.346,0.107   c-0.117,0.04-0.234,0.082-0.349,0.128c-0.109,0.043-0.216,0.087-0.322,0.135c-0.118,0.053-0.235,0.11-0.351,0.169   c-0.099,0.051-0.196,0.103-0.292,0.158c-0.116,0.066-0.23,0.136-0.343,0.208c-0.093,0.06-0.184,0.122-0.274,0.185   c-0.106,0.075-0.211,0.153-0.314,0.235c-0.094,0.075-0.186,0.152-0.277,0.231c-0.09,0.079-0.179,0.158-0.266,0.242   c-0.099,0.095-0.194,0.194-0.288,0.294c-0.047,0.05-0.097,0.094-0.142,0.145c-0.027,0.03-0.048,0.063-0.074,0.093   c-0.094,0.109-0.182,0.223-0.27,0.338c-0.064,0.084-0.13,0.168-0.19,0.254c-0.078,0.112-0.15,0.227-0.222,0.343   c-0.059,0.095-0.12,0.189-0.174,0.286c-0.063,0.112-0.118,0.227-0.175,0.342c-0.052,0.105-0.106,0.21-0.153,0.317   c-0.049,0.113-0.092,0.23-0.135,0.345c-0.043,0.113-0.087,0.225-0.124,0.339c-0.037,0.115-0.067,0.232-0.099,0.349   c-0.032,0.12-0.066,0.239-0.093,0.36c-0.025,0.113-0.042,0.228-0.062,0.342c-0.022,0.13-0.044,0.26-0.06,0.39   c-0.013,0.108-0.019,0.218-0.027,0.328c-0.01,0.14-0.019,0.28-0.021,0.421c-0.001,0.041-0.006,0.081-0.006,0.122v46.252   c0,4.143,3.357,7.5,7.5,7.5s7.5-3.357,7.5-7.5v-29.595l66.681,59.037c-0.348,0.245-0.683,0.516-0.995,0.827l-65.687,65.687v-49.288   c0-4.143-3.357-7.5-7.5-7.5s-7.5,3.357-7.5,7.5v9.164h-38.75c-4.143,0-7.5,3.357-7.5,7.5s3.357,7.5,7.5,7.5h38.75v43.231   c0,4.143,3.357,7.5,7.5,7.5h236.25c0.247,0,0.494-0.013,0.74-0.037c0.115-0.011,0.226-0.033,0.339-0.049   C339.542,260.469,339.67,260.454,339.798,260.429z M330.834,234.967l-65.688-65.687c-0.042-0.042-0.087-0.077-0.13-0.117   l49.383-41.897c3.158-2.68,3.546-7.412,0.866-10.571c-2.678-3.157-7.41-3.547-10.571-0.866l-84.381,71.59l-98.444-87.158h208.965   V234.967z M185.878,179.888c0.535-0.535,0.969-1.131,1.308-1.765l28.051,24.835c1.418,1.255,3.194,1.885,4.972,1.885   c1.726,0,3.451-0.593,4.853-1.781l28.587-24.254c0.26,0.38,0.553,0.743,0.89,1.08l65.687,65.687H120.191L185.878,179.888z"
   id="path12585" />
	<path
   d="M7.5,170.676h126.667c4.143,0,7.5-3.357,7.5-7.5s-3.357-7.5-7.5-7.5H7.5c-4.143,0-7.5,3.357-7.5,7.5   S3.357,170.676,7.5,170.676z"
   id="path12587" />
	<path
   d="M20.625,129.345H77.5c4.143,0,7.5-3.357,7.5-7.5s-3.357-7.5-7.5-7.5H20.625c-4.143,0-7.5,3.357-7.5,7.5   S16.482,129.345,20.625,129.345z"
   id="path12589" />
	<path
   d="M62.5,226.51h-55c-4.143,0-7.5,3.357-7.5,7.5s3.357,7.5,7.5,7.5h55c4.143,0,7.5-3.357,7.5-7.5S66.643,226.51,62.5,226.51z"
   id="path12591" />
</g>
<g
   id="g12595">
</g>
<g
   id="g12597">
</g>
<g
   id="g12599">
</g>
<g
   id="g12601">
</g>
<g
   id="g12603">
</g>
<g
   id="g12605">
</g>
<g
   id="g12607">
</g>
<g
   id="g12609">
</g>
<g
   id="g12611">
</g>
<g
   id="g12613">
</g>
<g
   id="g12615">
</g>
<g
   id="g12617">
</g>
<g
   id="g12619">
</g>
<g
   id="g12621">
</g>
<g
   id="g12623">
</g>
<path
   style="font-variation-settings:normal;opacity:1;vector-effect:none;fill:#000000;fill-opacity:1;stroke:none;stroke-width:0.0567872;stroke-linecap:butt;stroke-linejoin:miter;stroke-miterlimit:4;stroke-dasharray:none;stroke-dashoffset:0;stroke-opacity:1;-inkscape-stroke:none;stop-color:#000000;stop-opacity:1"
   d="m 99.23584,259.74884 c -0.585499,-0.23347 -1.514076,-0.84421 -2.063509,-1.3572 -2.241375,-2.09268 -2.195748,-1.55159 -2.195748,-26.03988 V 209.54475 H 74.464136 53.951689 l -1.806604,-1.05874 c -3.998129,-2.34306 -4.734786,-7.61061 -1.541895,-11.0255 2.251357,-2.40789 2.136611,-2.3965 24.129275,-2.3965 h 20.244118 v -5.57886 c 0,-6.29257 0.435802,-7.79046 2.788721,-9.58512 3.681156,-2.80776 8.905046,-1.36497 10.891456,3.0081 0.73012,1.60736 0.78247,3.39763 0.7912,27.05947 l 0.009,25.33824 33.36417,-33.21746 c 18.3503,-18.2696 33.38206,-33.40912 33.40392,-33.64336 0.0219,-0.23425 -5.84041,-5.61 -13.02726,-11.94611 -7.18686,-6.33611 -22.03766,-19.4646 -33.00179,-29.17442 -10.96413,-9.70982 -20.11574,-17.71811 -20.33692,-17.79619 -0.24729,-0.0873 -0.40304,5.6522 -0.4045,14.90664 -0.001,9.1654 -0.17665,15.67615 -0.44814,16.65379 -0.6251,2.25094 -2.93258,4.42851 -5.17916,4.88758 -3.28862,0.672 -5.949182,-0.43842 -7.892773,-3.29415 l -0.958284,-1.40802 V 115.84588 90.417607 l 0.958284,-1.408011 c 0.527056,-0.774406 1.499386,-1.808947 2.160734,-2.298979 l 1.202455,-0.890969 120.646294,-0.108683 120.6463,-0.108683 1.44031,0.970626 c 2.05966,1.388 3.28165,3.426404 3.58265,5.97622 0.14378,1.217976 0.20428,38.245982 0.13444,82.284452 -0.11666,73.56067 -0.18429,80.17381 -0.83185,81.34765 -0.91329,1.65552 -2.39759,3.02206 -3.90133,3.59182 -1.6185,0.61323 -240.24036,0.58934 -241.77903,-0.0242 z m 221.04394,-14.3227 c 0,-0.17624 -14.99715,-15.30882 -33.32699,-33.62795 l -33.32698,-33.3075 -14.05483,11.95192 c -7.73016,6.57356 -14.72221,12.41078 -15.53789,12.9716 -1.83046,1.25855 -5.10975,1.38493 -7.11919,0.27436 -0.74172,-0.40993 -7.70732,-6.37772 -15.47911,-13.26175 l -14.13053,-12.51642 -33.59967,33.59765 c -18.47982,18.47871 -33.59967,33.74185 -33.59967,33.9181 0,0.17624 45.03934,0.32043 100.08743,0.32043 55.04808,0 100.08743,-0.14419 100.08743,-0.32044 z m 10.6476,-77.83293 v -67.50578 h -104.6588 -104.6588 l 1.48356,1.46297 c 4.49105,4.42871 96.95247,85.85258 97.37756,85.75314 0.27919,-0.0653 19.59364,-16.31375 42.921,-36.10763 45.67667,-38.75788 44.36306,-37.75091 47.87417,-36.69896 2.28465,0.68451 3.86621,2.03041 4.79882,4.08383 0.97205,2.14025 1.00588,3.5669 0.13613,5.74063 -0.56096,1.40199 -4.74666,5.13741 -25.42285,22.68801 -13.61323,11.55533 -25.05002,21.24032 -25.41509,21.5222 -0.56532,0.43649 4.23155,5.41092 32.34276,33.53994 18.15359,18.16508 33.0549,33.02743 33.11403,33.02743 0.0591,0 0.10751,-30.3776 0.10751,-67.50578 z"
   id="path12724" /><path
   style="font-variation-settings:normal;opacity:1;vector-effect:none;fill:#006d77;fill-opacity:1;stroke:#006d77;stroke-width:0.0567872;stroke-linecap:butt;stroke-linejoin:miter;stroke-miterlimit:4;stroke-dasharray:none;stroke-dashoffset:0;stroke-opacity:1;-inkscape-stroke:none;stop-color:#000000;stop-opacity:1"
   d="m 99.23584,259.74884 c -0.585499,-0.23347 -1.514076,-0.84421 -2.063509,-1.3572 -2.241375,-2.09268 -2.195748,-1.55159 -2.195748,-26.03988 V 209.54475 H 74.464136 53.951689 l -1.806604,-1.05874 c -3.998129,-2.34306 -4.734786,-7.61061 -1.541895,-11.0255 2.251357,-2.40789 2.136611,-2.3965 24.129275,-2.3965 h 20.244118 v -5.55043 c 0,-6.34767 0.40822,-7.79785 2.683595,-9.53336 3.605432,-2.75001 8.623272,-1.61096 10.854152,2.46388 0.6595,1.20462 0.75061,3.81293 0.94299,26.99546 l 0.21295,25.66201 33.38192,-33.38423 33.38192,-33.38423 -15.29417,-13.57297 c -32.66385,-28.98788 -50.93258,-45.09574 -51.29968,-45.23184 -0.22222,-0.0824 -0.38294,6.34089 -0.38294,15.30455 0,14.78791 -0.0379,15.52477 -0.88837,17.28163 -2.52004,5.20572 -9.271013,5.50905 -12.634083,0.56768 l -0.958284,-1.40802 V 115.84588 90.417607 l 0.96842,-1.437036 c 0.532627,-0.790371 1.615084,-1.872826 2.405455,-2.405456 l 1.437038,-0.968419 H 220.19235 340.5972 l 1.43704,0.968419 c 2.05649,1.385867 3.27851,3.425444 3.57937,5.974013 0.14378,1.217976 0.20428,38.245982 0.13444,82.284452 -0.11666,73.56067 -0.18429,80.17381 -0.83185,81.34765 -0.91329,1.65552 -2.39759,3.02206 -3.90133,3.59182 -1.6185,0.61323 -240.24036,0.58934 -241.77903,-0.0242 z m 220.24828,-15.17349 c -0.46952,-0.64418 -15.47971,-15.77408 -33.35599,-33.622 l -32.50232,-32.45076 -12.99007,11.06748 c -17.5022,14.91178 -17.43713,14.86383 -20.17281,14.86383 -1.29522,0 -2.7582,-0.30662 -3.55626,-0.74533 -0.7457,-0.40993 -7.70383,-6.36968 -15.46251,-13.24387 -7.75868,-6.8742 -14.14104,-12.42808 -14.18303,-12.34196 -0.042,0.0861 -15.21325,15.34121 -33.71393,33.90021 l -33.63758,33.74363 H 220.1237 320.33778 Z m 11.30175,-144.34549 c -0.0793,-0.0793 -47.17052,-0.0958 -104.64721,-0.0368 l -104.50306,0.10733 11.05349,9.82471 c 35.86994,31.88237 86.47473,76.48806 87.32113,76.96938 0.58103,0.33041 3.29709,-1.93707 66.62314,-55.61966 20.94925,-17.75903 21.27573,-17.98363 24.66558,-16.968 0.89382,0.26779 2.15431,0.90314 2.80107,1.41189 1.39883,1.10031 2.75383,3.89359 2.75383,5.67688 0,3.29756 -0.4053,3.69136 -26.51972,25.76719 -13.71648,11.59524 -24.95186,21.35957 -24.9675,21.69852 -0.0156,0.33896 14.6812,15.34133 32.65968,33.33862 l 32.68812,32.72234 0.1078,-67.37412 c 0.0593,-37.05577 0.0429,-67.43899 -0.0364,-67.51827 z"
   id="path20703" /><path
   style="font-variation-settings:normal;opacity:1;vector-effect:none;fill:#006d77;fill-opacity:1;stroke:#006d77;stroke-width:0.0567872;stroke-linecap:butt;stroke-linejoin:miter;stroke-miterlimit:4;stroke-dasharray:none;stroke-dashoffset:0;stroke-opacity:1;-inkscape-stroke:none;stop-color:#000000;stop-opacity:1"
   d="m 4.4508765,169.76251 c -1.5381742,-0.66999 -3.49191792,-2.8718 -3.86411304,-4.35474 -0.46694701,-1.86047 0.0835846,-5.0945 1.11344534,-6.54081 0.5411433,-0.75996 1.7694848,-1.73853 2.7296477,-2.17458 1.6776088,-0.76188 4.2690249,-0.79319 66.3903565,-0.80218 70.351417,-0.0102 66.151497,-0.15648 68.529757,2.38714 3.22968,3.45423 2.46742,8.81867 -1.57872,11.11027 l -1.69494,0.95996 -65.163301,-0.01 c -53.227487,-0.008 -65.4012087,-0.11329 -66.4621325,-0.5754 z"
   id="path20972" /><path
   style="font-variation-settings:normal;opacity:1;vector-effect:none;fill:#006d77;fill-opacity:1;stroke:#006d77;stroke-width:0.0567872;stroke-linecap:butt;stroke-linejoin:miter;stroke-miterlimit:4;stroke-dasharray:none;stroke-dashoffset:0;stroke-opacity:1;-inkscape-stroke:none;stop-color:#000000;stop-opacity:1"
   d="m 17.653899,128.44982 c -0.714354,-0.31115 -1.81134,-1.17482 -2.437746,-1.91926 -3.126196,-3.71527 -2.066227,-8.9107 2.269201,-11.12247 1.592194,-0.81228 2.627427,-0.83992 31.448908,-0.83992 20.021301,0 30.196019,0.14867 31.00148,0.45299 2.669319,1.00854 4.819146,4.0653 4.819146,6.85218 0,2.26059 -1.567953,4.93063 -3.592036,6.11682 l -1.806603,1.05874 -30.201761,-0.0167 c -24.146454,-0.0133 -30.46217,-0.1301 -31.500589,-0.58241 z"
   id="path22294" /><path
   style="font-variation-settings:normal;opacity:1;vector-effect:none;fill:#006d77;fill-opacity:1;stroke:#006d77;stroke-width:0.0567872;stroke-linecap:butt;stroke-linejoin:miter;stroke-miterlimit:4;stroke-dasharray:none;stroke-dashoffset:0;stroke-opacity:1;-inkscape-stroke:none;stop-color:#000000;stop-opacity:1"
   d="m 5.3898951,240.87232 c -4.44144689,-1.59992 -6.38213729,-6.49369 -4.1054083,-10.35245 1.027146,-1.74089 2.0770928,-2.62126 4.02411,-3.37418 1.7100994,-0.66131 56.7447452,-0.77319 59.0961532,-0.12014 3.37798,0.93816 5.840071,4.61284 5.303999,7.91626 -0.357368,2.2022 -2.063424,4.57171 -3.975056,5.52089 -1.553284,0.77125 -3.063761,0.81659 -30.170712,0.90569 -23.418353,0.077 -28.8292184,-0.012 -30.1730859,-0.49607 z"
   id="path24240" /><path
   style="font-variation-settings:normal;opacity:1;vector-effect:none;fill:#006d77;fill-opacity:1;stroke:#006d77;stroke-width:0.00250966;stroke-linecap:butt;stroke-linejoin:miter;stroke-miterlimit:4;stroke-dasharray:none;stroke-dashoffset:0;stroke-opacity:1;-inkscape-stroke:none;stop-color:#000000;stop-opacity:1"
   d="m 310.55199,260.34531 v -0.21419 l 1.28464,-0.0114 c 0.70655,-0.006 2.44504,-0.016 3.86331,-0.0216 13.02479,-0.0515 23.25432,-0.15599 24.94573,-0.25487 0.36387,-0.0213 0.39386,-0.0288 0.73753,-0.18549 1.22891,-0.56024 2.44798,-1.6728 3.3024,-3.01387 0.31599,-0.49598 0.39833,-0.70996 0.47852,-1.24356 0.13998,-0.93153 0.24022,-2.92757 0.30331,-6.04014 0.0106,-0.52279 0.0244,-1.12205 0.0307,-1.33169 l 0.0114,-0.38115 h 0.15792 0.15792 v 2.84887 c 0,1.79493 -0.007,2.93866 -0.0195,3.09159 -0.0963,1.19977 -0.45594,2.33818 -1.05127,3.32779 -0.51324,0.85316 -1.15106,1.56006 -1.93831,2.1482 -1.13697,0.84942 -2.46874,1.35143 -3.9176,1.47672 -0.14106,0.0122 -5.11574,0.0188 -14.28155,0.0189 l -14.0651,1.6e-4 z"
   id="path26292" /></svg>
